<?xml version="1.0" encoding="UTF-8" standalone="no"?>
<svg xmlns="http://www.w3.org/2000/svg" width="300" height="200" viewBox="0 0 300 200">
  <!-- Keys design -->
  <g transform="translate(150, 100)" fill="none" stroke="#333333" stroke-width="3">
    <!-- Left Key -->
    <path d="M-30,0 L-50,0 L-50,20 L-40,20 L-40,30 L-30,30 L-30,20 L-20,20 L-20,10 L-30,10 Z" />
    <!-- Right Key -->
    <path d="M30,0 L50,0 L50,20 L40,20 L40,30 L30,30 L30,20 L20,20 L20,10 L30,10 Z" />
    
    <!-- Left Key Circle -->
    <circle cx="-30" cy="-20" r="20" />
    <circle cx="-30" cy="-20" r="10" />
    <!-- Orbital elements for left key -->
    <circle cx="-30" cy="-40" r="5" />
    <circle cx="-10" cy="-20" r="5" />
    <circle cx="-30" cy="0" r="5" />
    <circle cx="-50" cy="-20" r="5" />
    <path d="M-30,-40 A20,20 0 0,1 -10,-20 A20,20 0 0,1 -30,0 A20,20 0 0,1 -50,-20 A20,20 0 0,1 -30,-40" />
    
    <!-- Right Key Circle -->
    <circle cx="30" cy="-20" r="20" />
    <circle cx="30" cy="-20" r="10" />
    <!-- Orbital elements for right key -->
    <circle cx="30" cy="-40" r="5" />
    <circle cx="50" cy="-20" r="5" />
    <circle cx="30" cy="0" r="5" />
    <circle cx="10" cy="-20" r="5" />
    <path d="M30,-40 A20,20 0 0,1 50,-20 A20,20 0 0,1 30,0 A20,20 0 0,1 10,-20 A20,20 0 0,1 30,-40" />
    
    <!-- House symbol between keys -->
    <rect x="-5" y="-5" width="10" height="10" />
  </g>
  
  <!-- Text -->
  <text x="150" y="150" font-family="Arial, sans-serif" font-size="24" font-weight="bold" text-anchor="middle" fill="#333333">PROPERTY SISTERS</text>
  <text x="150" y="175" font-family="Arial, sans-serif" font-size="14" font-weight="normal" text-anchor="middle" fill="#b94a3b">LEADING YOU HOME</text>
</svg>
